<svg width="24" height="24" viewBox="0 0 24 24" fill="none" xmlns="http://www.w3.org/2000/svg">
<rect width="24" height="24" rx="7" fill="#BE9B93"/>
<path d="M13.9229 2.78402C12.8541 1.73866 11.1459 1.73866 10.0771 2.78402L2.97752 9.72796C2.35238 10.3394 2 11.1769 2 12.0514V18.7494C2 19.992 3.00736 20.9994 4.25 20.9994H18.5894C18.5961 20.9995 18.6027 20.9995 18.6093 20.9994H19.75C20.9926 20.9994 22 19.992 22 18.7494V12.0514C22 11.1769 21.6476 10.3394 21.0225 9.72796L13.9229 2.78402ZM18.643 19.4994L18.5464 19.4876C18.4545 19.4762 18.3187 19.459 18.1455 19.4359C17.799 19.3897 17.3028 19.32 16.7071 19.2266C15.5138 19.0395 13.9286 18.7582 12.3485 18.3808C10.7587 18.0011 9.21547 17.5336 8.08484 16.9853C7.51766 16.7102 7.09607 16.4345 6.82626 16.1708C6.55787 15.9085 6.5 15.7206 6.5 15.5995C6.5 15.2874 6.69957 14.9525 7.52094 14.6134C8.32081 14.2832 9.43325 14.0747 10.658 13.8841C10.8863 13.8486 11.1189 13.8136 11.3528 13.7785C12.3281 13.632 13.3273 13.482 14.1429 13.27C14.6511 13.1379 15.145 12.9685 15.5459 12.7293C15.9465 12.4902 16.341 12.1277 16.4776 11.5814C16.621 11.0076 16.4408 10.495 16.1631 10.0902C15.8957 9.70048 15.5062 9.35931 15.1035 9.0601C14.5902 8.67881 13.9297 8.28052 13.2917 7.89578C12.9572 7.6941 12.6288 7.49611 12.331 7.30617C11.3807 6.70015 10.7007 6.15631 10.4198 5.638C10.2965 5.41057 10.2668 5.21673 10.3075 5.02187C10.3514 4.81159 10.4958 4.51441 10.8803 4.12984C10.9242 4.08595 10.9615 4.03798 10.9923 3.98715L11.126 3.85637C11.6118 3.38121 12.3882 3.38121 12.874 3.85637L19.9736 10.8003C20.3103 11.1295 20.5 11.5805 20.5 12.0514V18.7494C20.5 19.1636 20.1642 19.4994 19.75 19.4994H18.643ZM8.93866 5.99571C8.98401 6.11856 9.03866 6.2377 9.10103 6.35278C9.58999 7.25489 10.5988 7.98057 11.5245 8.57088C11.9008 8.8109 12.2674 9.03131 12.6172 9.24166C13.206 9.59574 13.7474 9.92136 14.209 10.2642C14.5652 10.5288 14.7985 10.7527 14.9262 10.9388C15.0436 11.1099 15.0308 11.184 15.0224 11.2176C15.0207 11.2242 14.9991 11.3088 14.7772 11.4412C14.5557 11.5735 14.2208 11.6999 13.7656 11.8182C13.0343 12.0083 12.1393 12.143 11.1715 12.2887C10.9276 12.3254 10.679 12.3628 10.4273 12.4019C9.22117 12.5896 7.93728 12.8188 6.94855 13.2269C5.98131 13.6262 5 14.3304 5 15.5995C5 16.2689 5.34364 16.8193 5.7779 17.2436C6.21074 17.6666 6.79293 18.0258 7.4303 18.3349C8.36144 18.7865 9.49968 19.173 10.6762 19.4994H4.25C3.83579 19.4994 3.5 19.1636 3.5 18.7494V12.0514C3.5 11.5805 3.68974 11.1295 4.02636 10.8003L8.93866 5.99571Z" fill="#EBDDDD"/>
</svg>
