<svg width="91" height="95" viewBox="0 0 91 95" fill="none" xmlns="http://www.w3.org/2000/svg">
<path d="M16.9479 0.416504C8.04804 0.416504 0.833313 7.26746 0.833313 15.7186V83.9894C0.833313 89.84 5.82814 94.5832 11.9896 94.5832H56.6146C62.7758 94.5832 67.7708 89.84 67.7708 83.9894V75.7498H73.9687C82.8684 75.7498 90.0833 68.8987 90.0833 60.4478V34.5519C90.0833 26.1008 82.8684 19.2498 73.9687 19.2498H67.7708V15.7186C67.7708 7.26746 60.5559 0.416504 51.6562 0.416504H16.9479ZM73.9687 68.6873H67.7708V26.3123H73.9687C78.761 26.3123 82.6458 30.0013 82.6458 34.5519V60.4478C82.6458 64.9984 78.761 68.6873 73.9687 68.6873ZM60.3333 19.2498H8.27081V15.7186C8.27081 11.168 12.1557 7.479 16.9479 7.479H51.6562C56.4485 7.479 60.3333 11.168 60.3333 15.7186V19.2498ZM23.1458 38.0832V71.0415C23.1458 72.9917 21.4809 74.5727 19.4271 74.5727C17.3733 74.5727 15.7083 72.9917 15.7083 71.0415V38.0832C15.7083 36.1329 17.3733 34.5519 19.4271 34.5519C21.4809 34.5519 23.1458 36.1329 23.1458 38.0832ZM38.0208 38.0832V71.0415C38.0208 72.9917 36.3558 74.5727 34.3021 74.5727C32.2483 74.5727 30.5833 72.9917 30.5833 71.0415V38.0832C30.5833 36.1329 32.2483 34.5519 34.3021 34.5519C36.3558 34.5519 38.0208 36.1329 38.0208 38.0832ZM52.8958 38.0832V71.0415C52.8958 72.9917 51.2308 74.5727 49.1771 74.5727C47.1233 74.5727 45.4583 72.9917 45.4583 71.0415V38.0832C45.4583 36.1329 47.1233 34.5519 49.1771 34.5519C51.2308 34.5519 52.8958 36.1329 52.8958 38.0832Z" fill="#EBBFB5"/>
</svg>
