<svg width="101" height="95" viewBox="0 0 101 95" fill="none" xmlns="http://www.w3.org/2000/svg">
<path d="M13.2708 3.94775C13.2708 1.99752 11.6059 0.416504 9.55208 0.416504C7.49829 0.416504 5.83333 1.99752 5.83333 3.94775C5.83333 9.93045 10.435 12.9746 13.2991 14.8693L13.6174 15.0802C16.9888 17.3213 18.2292 18.3971 18.2292 20.4269C18.2292 22.3772 19.8941 23.9582 21.9479 23.9582C24.0017 23.9582 25.6667 22.3772 25.6667 20.4269C25.6667 14.4442 21.065 11.4001 18.2009 9.50533L17.8826 9.29444C14.5112 7.05342 13.2708 5.97756 13.2708 3.94775ZM9.90626 28.6665C4.91842 28.6665 0.875 32.5061 0.875 37.2424V56.9165C0.875 77.7193 18.6344 94.5832 40.5417 94.5832C57.1888 94.5832 71.4405 84.8454 77.3251 71.0415H83.9271C92.8268 71.0415 100.042 64.1904 100.042 55.7394C100.042 47.2884 92.8268 40.4373 83.9271 40.4373H80.2083V37.2424C80.2083 32.5061 76.1648 28.6665 71.1772 28.6665H9.90626ZM83.9271 63.979H79.5122C79.9693 61.6912 80.2083 59.3305 80.2083 56.9165V47.4998H83.9271C88.7193 47.4998 92.6042 51.1888 92.6042 55.7394C92.6042 60.29 88.7193 63.979 83.9271 63.979ZM29.3854 0.416504C31.4392 0.416504 33.1042 1.99752 33.1042 3.94775C33.1042 5.97756 34.3445 7.05342 37.7159 9.29444L38.0342 9.50533C40.8982 11.4001 45.5 14.4442 45.5 20.4269C45.5 22.3772 43.835 23.9582 41.7813 23.9582C39.7275 23.9582 38.0625 22.3772 38.0625 20.4269C38.0625 18.3971 36.8224 17.3213 33.4508 15.0802L33.1325 14.8693C30.2683 12.9746 25.6667 9.93045 25.6667 3.94775C25.6667 1.99752 27.3316 0.416504 29.3854 0.416504ZM52.9375 3.94775C52.9375 1.99752 51.2725 0.416504 49.2188 0.416504C47.165 0.416504 45.5 1.99752 45.5 3.94775C45.5 9.93045 50.1018 12.9746 52.9658 14.8693L53.2841 15.0802C56.6558 17.3213 57.8958 18.3971 57.8958 20.4269C57.8958 22.3772 59.5608 23.9582 61.6146 23.9582C63.6683 23.9582 65.3333 22.3772 65.3333 20.4269C65.3333 14.4442 60.7315 11.4001 57.8676 9.50533L57.5493 9.29444C54.1776 7.05342 52.9375 5.97756 52.9375 3.94775Z" fill="#EBBFB5"/>
</svg>
