<svg width="124" height="44" viewBox="0 0 124 44" fill="none" xmlns="http://www.w3.org/2000/svg">
<rect x="62" y="4" width="24" height="24" rx="7" fill="#BE9B93"/>
<path d="M75.9229 6.78402C74.8541 5.73866 73.1459 5.73866 72.0771 6.78402L64.9775 13.728C64.3524 14.3394 64 15.1769 64 16.0514V22.7494C64 23.992 65.0074 24.9994 66.25 24.9994H80.5894C80.5961 24.9995 80.6027 24.9995 80.6093 24.9994H81.75C82.9926 24.9994 84 23.992 84 22.7494V16.0514C84 15.1769 83.6476 14.3394 83.0225 13.728L75.9229 6.78402ZM80.643 23.4994L80.5464 23.4876C80.4545 23.4762 80.3187 23.459 80.1455 23.4359C79.799 23.3897 79.3028 23.32 78.7071 23.2266C77.5138 23.0395 75.9286 22.7582 74.3485 22.3808C72.7587 22.0011 71.2155 21.5336 70.0848 20.9853C69.5177 20.7102 69.0961 20.4345 68.8263 20.1708C68.5579 19.9085 68.5 19.7206 68.5 19.5995C68.5 19.2874 68.6996 18.9525 69.5209 18.6134C70.3208 18.2832 71.4332 18.0747 72.658 17.8841C72.8863 17.8486 73.1189 17.8136 73.3528 17.7785C74.3281 17.632 75.3273 17.482 76.1429 17.27C76.6511 17.1379 77.145 16.9685 77.5459 16.7293C77.9465 16.4902 78.341 16.1277 78.4776 15.5814C78.621 15.0076 78.4408 14.495 78.1631 14.0902C77.8957 13.7005 77.5062 13.3593 77.1035 13.0601C76.5902 12.6788 75.9297 12.2805 75.2917 11.8958C74.9572 11.6941 74.6288 11.4961 74.331 11.3062C73.3807 10.7002 72.7007 10.1563 72.4198 9.638C72.2965 9.41057 72.2668 9.21673 72.3075 9.02187C72.3514 8.81159 72.4958 8.51441 72.8803 8.12984C72.9242 8.08595 72.9615 8.03798 72.9923 7.98715L73.126 7.85637C73.6118 7.38121 74.3882 7.38121 74.874 7.85637L81.9736 14.8003C82.3103 15.1295 82.5 15.5805 82.5 16.0514V22.7494C82.5 23.1636 82.1642 23.4994 81.75 23.4994H80.643ZM70.9387 9.99571C70.984 10.1186 71.0387 10.2377 71.101 10.3528C71.59 11.2549 72.5988 11.9806 73.5245 12.5709C73.9008 12.8109 74.2674 13.0313 74.6172 13.2417C75.206 13.5957 75.7474 13.9214 76.209 14.2642C76.5652 14.5288 76.7985 14.7527 76.9262 14.9388C77.0436 15.1099 77.0308 15.184 77.0224 15.2176C77.0207 15.2242 76.9991 15.3088 76.7772 15.4412C76.5557 15.5735 76.2208 15.6999 75.7656 15.8182C75.0343 16.0083 74.1393 16.143 73.1715 16.2887C72.9276 16.3254 72.679 16.3628 72.4273 16.4019C71.2212 16.5896 69.9373 16.8188 68.9486 17.2269C67.9813 17.6262 67 18.3304 67 19.5995C67 20.2689 67.3436 20.8193 67.7779 21.2436C68.2107 21.6666 68.7929 22.0258 69.4303 22.3349C70.3614 22.7865 71.4997 23.173 72.6762 23.4994H66.25C65.8358 23.4994 65.5 23.1636 65.5 22.7494V16.0514C65.5 15.5805 65.6897 15.1295 66.0264 14.8003L70.9387 9.99571Z" fill="#EBDDDD"/>
<path d="M2.85 24V6.5H9.4C10.8833 6.5 12.1583 6.74167 13.225 7.225C14.2917 7.69167 15.1083 8.375 15.675 9.275C16.2583 10.1583 16.55 11.2333 16.55 12.5C16.55 13.7333 16.2583 14.8 15.675 15.7C15.1083 16.5833 14.2917 17.2667 13.225 17.75C12.1583 18.2333 10.8833 18.475 9.4 18.475H3.875L4.7 17.6V24H2.85ZM4.7 17.75L3.875 16.85H9.35C11.1 16.85 12.425 16.475 13.325 15.725C14.2417 14.9583 14.7 13.8833 14.7 12.5C14.7 11.1 14.2417 10.0167 13.325 9.25C12.425 8.48333 11.1 8.1 9.35 8.1H3.875L4.7 7.225V17.75ZM25.677 24.125C24.3103 24.125 23.1103 23.8417 22.077 23.275C21.0436 22.6917 20.2353 21.9 19.652 20.9C19.0686 19.8833 18.777 18.725 18.777 17.425C18.777 16.125 19.052 14.975 19.602 13.975C20.1686 12.975 20.9353 12.1917 21.902 11.625C22.8853 11.0417 23.9853 10.75 25.202 10.75C26.4353 10.75 27.527 11.0333 28.477 11.6C29.4436 12.15 30.202 12.9333 30.752 13.95C31.302 14.95 31.577 16.1083 31.577 17.425C31.577 17.5083 31.5686 17.6 31.552 17.7C31.552 17.7833 31.552 17.875 31.552 17.975H20.127V16.65H30.602L29.902 17.175C29.902 16.225 29.6936 15.3833 29.277 14.65C28.877 13.9 28.327 13.3167 27.627 12.9C26.927 12.4833 26.1186 12.275 25.202 12.275C24.302 12.275 23.4936 12.4833 22.777 12.9C22.0603 13.3167 21.502 13.9 21.102 14.65C20.702 15.4 20.502 16.2583 20.502 17.225V17.5C20.502 18.5 20.7186 19.3833 21.152 20.15C21.602 20.9 22.2186 21.4917 23.002 21.925C23.802 22.3417 24.7103 22.55 25.727 22.55C26.527 22.55 27.2686 22.4083 27.952 22.125C28.652 21.8417 29.252 21.4083 29.752 20.825L30.752 21.975C30.1686 22.675 29.4353 23.2083 28.552 23.575C27.6853 23.9417 26.727 24.125 25.677 24.125ZM43.0486 24V21.1L42.9736 20.625V15.775C42.9736 14.6583 42.657 13.8 42.0236 13.2C41.407 12.6 40.482 12.3 39.2486 12.3C38.3986 12.3 37.5903 12.4417 36.8236 12.725C36.057 13.0083 35.407 13.3833 34.8736 13.85L34.0736 12.525C34.7403 11.9583 35.5403 11.525 36.4736 11.225C37.407 10.9083 38.3903 10.75 39.4236 10.75C41.1236 10.75 42.432 11.175 43.3486 12.025C44.282 12.8583 44.7486 14.1333 44.7486 15.85V24H43.0486ZM38.5236 24.125C37.5403 24.125 36.682 23.9667 35.9486 23.65C35.232 23.3167 34.682 22.8667 34.2986 22.3C33.9153 21.7167 33.7236 21.05 33.7236 20.3C33.7236 19.6167 33.882 19 34.1986 18.45C34.532 17.8833 35.0653 17.4333 35.7986 17.1C36.5486 16.75 37.5486 16.575 38.7986 16.575H43.3236V17.9H38.8486C37.582 17.9 36.6986 18.125 36.1986 18.575C35.7153 19.025 35.4736 19.5833 35.4736 20.25C35.4736 21 35.7653 21.6 36.3486 22.05C36.932 22.5 37.7486 22.725 38.7986 22.725C39.7986 22.725 40.657 22.5 41.3736 22.05C42.107 21.5833 42.6403 20.9167 42.9736 20.05L43.3736 21.275C43.0403 22.1417 42.457 22.8333 41.6236 23.35C40.807 23.8667 39.7736 24.125 38.5236 24.125ZM50.9697 20.6L51.0197 18.325L59.1947 10.875H61.3697L55.5947 16.4L54.5947 17.25L50.9697 20.6ZM49.5697 24V5.45H51.3447V24H49.5697ZM59.7447 24L54.2697 17.175L55.4197 15.8L61.9197 24H59.7447Z" fill="black"/>
<path d="M36.85 42V24.5H38.375L46.375 38.15H45.575L53.5 24.5H55.025V42H53.25V27.275H53.675L46.375 39.775H45.5L38.15 27.275H38.625V42H36.85ZM65.702 42.125C64.4353 42.125 63.2936 41.8417 62.277 41.275C61.277 40.6917 60.4853 39.9 59.902 38.9C59.3186 37.8833 59.027 36.725 59.027 35.425C59.027 34.1083 59.3186 32.95 59.902 31.95C60.4853 30.95 61.277 30.1667 62.277 29.6C63.277 29.0333 64.4186 28.75 65.702 28.75C67.002 28.75 68.152 29.0333 69.152 29.6C70.1686 30.1667 70.9603 30.95 71.527 31.95C72.1103 32.95 72.402 34.1083 72.402 35.425C72.402 36.725 72.1103 37.8833 71.527 38.9C70.9603 39.9 70.1686 40.6917 69.152 41.275C68.1353 41.8417 66.9853 42.125 65.702 42.125ZM65.702 40.55C66.652 40.55 67.4936 40.3417 68.227 39.925C68.9603 39.4917 69.5353 38.8917 69.952 38.125C70.3853 37.3417 70.602 36.4417 70.602 35.425C70.602 34.3917 70.3853 33.4917 69.952 32.725C69.5353 31.9583 68.9603 31.3667 68.227 30.95C67.4936 30.5167 66.6603 30.3 65.727 30.3C64.7936 30.3 63.9603 30.5167 63.227 30.95C62.4936 31.3667 61.9103 31.9583 61.477 32.725C61.0436 33.4917 60.827 34.3917 60.827 35.425C60.827 36.4417 61.0436 37.3417 61.477 38.125C61.9103 38.8917 62.4936 39.4917 63.227 39.925C63.9603 40.3417 64.7853 40.55 65.702 40.55ZM80.1758 42.125C78.9424 42.125 77.9924 41.7917 77.3258 41.125C76.6591 40.4583 76.3258 39.5167 76.3258 38.3V25.975H78.1008V38.2C78.1008 38.9667 78.2924 39.5583 78.6758 39.975C79.0758 40.3917 79.6424 40.6 80.3758 40.6C81.1591 40.6 81.8091 40.375 82.3258 39.925L82.9508 41.2C82.6008 41.5167 82.1758 41.75 81.6758 41.9C81.1924 42.05 80.6924 42.125 80.1758 42.125ZM73.9758 30.35V28.875H82.1008V30.35H73.9758ZM86.182 42V28.875H87.957V42H86.182ZM87.082 25.975C86.7154 25.975 86.407 25.85 86.157 25.6C85.907 25.35 85.782 25.05 85.782 24.7C85.782 24.35 85.907 24.0583 86.157 23.825C86.407 23.575 86.7154 23.45 87.082 23.45C87.4487 23.45 87.757 23.5667 88.007 23.8C88.257 24.0333 88.382 24.325 88.382 24.675C88.382 25.0417 88.257 25.35 88.007 25.6C87.7737 25.85 87.4654 25.975 87.082 25.975ZM98.2459 42.125C96.9792 42.125 95.8376 41.8417 94.8209 41.275C93.8209 40.6917 93.0292 39.9 92.4459 38.9C91.8626 37.8833 91.5709 36.725 91.5709 35.425C91.5709 34.1083 91.8626 32.95 92.4459 31.95C93.0292 30.95 93.8209 30.1667 94.8209 29.6C95.8209 29.0333 96.9626 28.75 98.2459 28.75C99.5459 28.75 100.696 29.0333 101.696 29.6C102.713 30.1667 103.504 30.95 104.071 31.95C104.654 32.95 104.946 34.1083 104.946 35.425C104.946 36.725 104.654 37.8833 104.071 38.9C103.504 39.9 102.713 40.6917 101.696 41.275C100.679 41.8417 99.5292 42.125 98.2459 42.125ZM98.2459 40.55C99.1959 40.55 100.038 40.3417 100.771 39.925C101.504 39.4917 102.079 38.8917 102.496 38.125C102.929 37.3417 103.146 36.4417 103.146 35.425C103.146 34.3917 102.929 33.4917 102.496 32.725C102.079 31.9583 101.504 31.3667 100.771 30.95C100.038 30.5167 99.2042 30.3 98.2709 30.3C97.3376 30.3 96.5042 30.5167 95.7709 30.95C95.0376 31.3667 94.4542 31.9583 94.0209 32.725C93.5876 33.4917 93.3709 34.3917 93.3709 35.425C93.3709 36.4417 93.5876 37.3417 94.0209 38.125C94.4542 38.8917 95.0376 39.4917 95.7709 39.925C96.5042 40.3417 97.3292 40.55 98.2459 40.55ZM115.27 28.75C116.336 28.75 117.27 28.9583 118.07 29.375C118.886 29.775 119.52 30.3917 119.97 31.225C120.436 32.0583 120.67 33.1083 120.67 34.375V42H118.895V34.55C118.895 33.1667 118.545 32.125 117.845 31.425C117.161 30.7083 116.195 30.35 114.945 30.35C114.011 30.35 113.195 30.5417 112.495 30.925C111.811 31.2917 111.278 31.8333 110.895 32.55C110.528 33.25 110.345 34.1 110.345 35.1V42H108.57V28.875H110.27V32.475L109.995 31.8C110.411 30.85 111.078 30.1083 111.995 29.575C112.911 29.025 114.003 28.75 115.27 28.75Z" fill="black"/>
<path d="M3.85 25V7.5H10.4C11.8833 7.5 13.1583 7.74167 14.225 8.225C15.2917 8.69167 16.1083 9.375 16.675 10.275C17.2583 11.1583 17.55 12.2333 17.55 13.5C17.55 14.7333 17.2583 15.8 16.675 16.7C16.1083 17.5833 15.2917 18.2667 14.225 18.75C13.1583 19.2333 11.8833 19.475 10.4 19.475H4.875L5.7 18.6V25H3.85ZM5.7 18.75L4.875 17.85H10.35C12.1 17.85 13.425 17.475 14.325 16.725C15.2417 15.9583 15.7 14.8833 15.7 13.5C15.7 12.1 15.2417 11.0167 14.325 10.25C13.425 9.48333 12.1 9.1 10.35 9.1H4.875L5.7 8.225V18.75ZM26.677 25.125C25.3103 25.125 24.1103 24.8417 23.077 24.275C22.0436 23.6917 21.2353 22.9 20.652 21.9C20.0686 20.8833 19.777 19.725 19.777 18.425C19.777 17.125 20.052 15.975 20.602 14.975C21.1686 13.975 21.9353 13.1917 22.902 12.625C23.8853 12.0417 24.9853 11.75 26.202 11.75C27.4353 11.75 28.527 12.0333 29.477 12.6C30.4436 13.15 31.202 13.9333 31.752 14.95C32.302 15.95 32.577 17.1083 32.577 18.425C32.577 18.5083 32.5686 18.6 32.552 18.7C32.552 18.7833 32.552 18.875 32.552 18.975H21.127V17.65H31.602L30.902 18.175C30.902 17.225 30.6936 16.3833 30.277 15.65C29.877 14.9 29.327 14.3167 28.627 13.9C27.927 13.4833 27.1186 13.275 26.202 13.275C25.302 13.275 24.4936 13.4833 23.777 13.9C23.0603 14.3167 22.502 14.9 22.102 15.65C21.702 16.4 21.502 17.2583 21.502 18.225V18.5C21.502 19.5 21.7186 20.3833 22.152 21.15C22.602 21.9 23.2186 22.4917 24.002 22.925C24.802 23.3417 25.7103 23.55 26.727 23.55C27.527 23.55 28.2686 23.4083 28.952 23.125C29.652 22.8417 30.252 22.4083 30.752 21.825L31.752 22.975C31.1686 23.675 30.4353 24.2083 29.552 24.575C28.6853 24.9417 27.727 25.125 26.677 25.125ZM44.0486 25V22.1L43.9736 21.625V16.775C43.9736 15.6583 43.657 14.8 43.0236 14.2C42.407 13.6 41.482 13.3 40.2486 13.3C39.3986 13.3 38.5903 13.4417 37.8236 13.725C37.057 14.0083 36.407 14.3833 35.8736 14.85L35.0736 13.525C35.7403 12.9583 36.5403 12.525 37.4736 12.225C38.407 11.9083 39.3903 11.75 40.4236 11.75C42.1236 11.75 43.432 12.175 44.3486 13.025C45.282 13.8583 45.7486 15.1333 45.7486 16.85V25H44.0486ZM39.5236 25.125C38.5403 25.125 37.682 24.9667 36.9486 24.65C36.232 24.3167 35.682 23.8667 35.2986 23.3C34.9153 22.7167 34.7236 22.05 34.7236 21.3C34.7236 20.6167 34.882 20 35.1986 19.45C35.532 18.8833 36.0653 18.4333 36.7986 18.1C37.5486 17.75 38.5486 17.575 39.7986 17.575H44.3236V18.9H39.8486C38.582 18.9 37.6986 19.125 37.1986 19.575C36.7153 20.025 36.4736 20.5833 36.4736 21.25C36.4736 22 36.7653 22.6 37.3486 23.05C37.932 23.5 38.7486 23.725 39.7986 23.725C40.7986 23.725 41.657 23.5 42.3736 23.05C43.107 22.5833 43.6403 21.9167 43.9736 21.05L44.3736 22.275C44.0403 23.1417 43.457 23.8333 42.6236 24.35C41.807 24.8667 40.7736 25.125 39.5236 25.125ZM51.9697 21.6L52.0197 19.325L60.1947 11.875H62.3697L56.5947 17.4L55.5947 18.25L51.9697 21.6ZM50.5697 25V6.45H52.3447V25H50.5697ZM60.7447 25L55.2697 18.175L56.4197 16.8L62.9197 25H60.7447Z" fill="#EBBFB5"/>
<path d="M37.85 43V25.5H39.375L47.375 39.15H46.575L54.5 25.5H56.025V43H54.25V28.275H54.675L47.375 40.775H46.5L39.15 28.275H39.625V43H37.85ZM66.702 43.125C65.4353 43.125 64.2936 42.8417 63.277 42.275C62.277 41.6917 61.4853 40.9 60.902 39.9C60.3186 38.8833 60.027 37.725 60.027 36.425C60.027 35.1083 60.3186 33.95 60.902 32.95C61.4853 31.95 62.277 31.1667 63.277 30.6C64.277 30.0333 65.4186 29.75 66.702 29.75C68.002 29.75 69.152 30.0333 70.152 30.6C71.1686 31.1667 71.9603 31.95 72.527 32.95C73.1103 33.95 73.402 35.1083 73.402 36.425C73.402 37.725 73.1103 38.8833 72.527 39.9C71.9603 40.9 71.1686 41.6917 70.152 42.275C69.1353 42.8417 67.9853 43.125 66.702 43.125ZM66.702 41.55C67.652 41.55 68.4936 41.3417 69.227 40.925C69.9603 40.4917 70.5353 39.8917 70.952 39.125C71.3853 38.3417 71.602 37.4417 71.602 36.425C71.602 35.3917 71.3853 34.4917 70.952 33.725C70.5353 32.9583 69.9603 32.3667 69.227 31.95C68.4936 31.5167 67.6603 31.3 66.727 31.3C65.7936 31.3 64.9603 31.5167 64.227 31.95C63.4936 32.3667 62.9103 32.9583 62.477 33.725C62.0436 34.4917 61.827 35.3917 61.827 36.425C61.827 37.4417 62.0436 38.3417 62.477 39.125C62.9103 39.8917 63.4936 40.4917 64.227 40.925C64.9603 41.3417 65.7853 41.55 66.702 41.55ZM81.1758 43.125C79.9424 43.125 78.9924 42.7917 78.3258 42.125C77.6591 41.4583 77.3258 40.5167 77.3258 39.3V26.975H79.1008V39.2C79.1008 39.9667 79.2924 40.5583 79.6758 40.975C80.0758 41.3917 80.6424 41.6 81.3758 41.6C82.1591 41.6 82.8091 41.375 83.3258 40.925L83.9508 42.2C83.6008 42.5167 83.1758 42.75 82.6758 42.9C82.1924 43.05 81.6924 43.125 81.1758 43.125ZM74.9758 31.35V29.875H83.1008V31.35H74.9758ZM87.182 43V29.875H88.957V43H87.182ZM88.082 26.975C87.7154 26.975 87.407 26.85 87.157 26.6C86.907 26.35 86.782 26.05 86.782 25.7C86.782 25.35 86.907 25.0583 87.157 24.825C87.407 24.575 87.7154 24.45 88.082 24.45C88.4487 24.45 88.757 24.5667 89.007 24.8C89.257 25.0333 89.382 25.325 89.382 25.675C89.382 26.0417 89.257 26.35 89.007 26.6C88.7737 26.85 88.4654 26.975 88.082 26.975ZM99.2459 43.125C97.9792 43.125 96.8376 42.8417 95.8209 42.275C94.8209 41.6917 94.0292 40.9 93.4459 39.9C92.8626 38.8833 92.5709 37.725 92.5709 36.425C92.5709 35.1083 92.8626 33.95 93.4459 32.95C94.0292 31.95 94.8209 31.1667 95.8209 30.6C96.8209 30.0333 97.9626 29.75 99.2459 29.75C100.546 29.75 101.696 30.0333 102.696 30.6C103.713 31.1667 104.504 31.95 105.071 32.95C105.654 33.95 105.946 35.1083 105.946 36.425C105.946 37.725 105.654 38.8833 105.071 39.9C104.504 40.9 103.713 41.6917 102.696 42.275C101.679 42.8417 100.529 43.125 99.2459 43.125ZM99.2459 41.55C100.196 41.55 101.038 41.3417 101.771 40.925C102.504 40.4917 103.079 39.8917 103.496 39.125C103.929 38.3417 104.146 37.4417 104.146 36.425C104.146 35.3917 103.929 34.4917 103.496 33.725C103.079 32.9583 102.504 32.3667 101.771 31.95C101.038 31.5167 100.204 31.3 99.2709 31.3C98.3376 31.3 97.5042 31.5167 96.7709 31.95C96.0376 32.3667 95.4542 32.9583 95.0209 33.725C94.5876 34.4917 94.3709 35.3917 94.3709 36.425C94.3709 37.4417 94.5876 38.3417 95.0209 39.125C95.4542 39.8917 96.0376 40.4917 96.7709 40.925C97.5042 41.3417 98.3292 41.55 99.2459 41.55ZM116.27 29.75C117.336 29.75 118.27 29.9583 119.07 30.375C119.886 30.775 120.52 31.3917 120.97 32.225C121.436 33.0583 121.67 34.1083 121.67 35.375V43H119.895V35.55C119.895 34.1667 119.545 33.125 118.845 32.425C118.161 31.7083 117.195 31.35 115.945 31.35C115.011 31.35 114.195 31.5417 113.495 31.925C112.811 32.2917 112.278 32.8333 111.895 33.55C111.528 34.25 111.345 35.1 111.345 36.1V43H109.57V29.875H111.27V33.475L110.995 32.8C111.411 31.85 112.078 31.1083 112.995 30.575C113.911 30.025 115.003 29.75 116.27 29.75Z" fill="#EBBFB5"/>
</svg>
