<svg width="78" height="95" viewBox="0 0 78 95" fill="none" xmlns="http://www.w3.org/2000/svg">
<path d="M77.5948 3.36778C77.9324 5.29151 76.5639 7.11091 74.5379 7.4315L47.3197 11.7392L46.7296 14.5421H66.4896C68.5433 14.5421 70.2083 16.1231 70.2083 18.0733V36.9067C70.2083 44.9616 63.6539 51.5631 55.3333 52.1644V54.5628C55.3333 63.7572 48.3946 71.413 39.2187 73.0656V87.5211H51.6146C53.6683 87.5211 55.3333 89.1022 55.3333 91.0524C55.3333 93.0026 53.6683 94.5836 51.6146 94.5836H19.3854C17.3316 94.5836 15.6667 93.0026 15.6667 91.0524C15.6667 89.1022 17.3316 87.5211 19.3854 87.5211H31.7812V73.0656C22.6051 71.413 15.6667 63.7572 15.6667 54.5628V52.1644C7.34604 51.5631 0.791664 44.9616 0.791664 36.9067V18.0733C0.791664 16.1231 2.45662 14.5421 4.51041 14.5421H39.1444L40.5302 7.9641C40.8332 6.52547 42.041 5.41464 43.5652 5.17343L73.3152 0.465094C75.3412 0.144503 77.2571 1.44405 77.5948 3.36778ZM35.4256 32.1983L37.6569 21.6046H8.22916V32.1983H35.4256ZM62.7708 32.1983V21.6046H45.2421L43.0109 32.1983H62.7708Z" fill="#EBBFB5"/>
</svg>
